<?xml version="1.0" encoding="UTF-8" standalone="no"?>
<svg
   xmlns:dc="http://purl.org/dc/elements/1.1/"
   xmlns:cc="http://creativecommons.org/ns#"
   xmlns:rdf="http://www.w3.org/1999/02/22-rdf-syntax-ns#"
   xmlns:svg="http://www.w3.org/2000/svg"
   xmlns="http://www.w3.org/2000/svg"
   xmlns:sodipodi="http://sodipodi.sourceforge.net/DTD/sodipodi-0.dtd"
   xmlns:inkscape="http://www.inkscape.org/namespaces/inkscape"
   width="1600"
   height="864"
   version="1.1"
   id="svg3725"
   sodipodi:docname="leaf-bg.svg"
   inkscape:version="0.92.4 (5da689c313, 2019-01-14)">
  <metadata
     id="metadata3731">
    <rdf:RDF>
      <cc:Work
         rdf:about="">
        <dc:format>image/svg+xml</dc:format>
        <dc:type
           rdf:resource="http://purl.org/dc/dcmitype/StillImage" />
      </cc:Work>
    </rdf:RDF>
  </metadata>
  <defs
     id="defs3729" />
  <sodipodi:namedview
     pagecolor="#ffffff"
     bordercolor="#666666"
     borderopacity="1"
     objecttolerance="10"
     gridtolerance="10"
     guidetolerance="10"
     inkscape:pageopacity="0"
     inkscape:pageshadow="2"
     inkscape:window-width="1920"
     inkscape:window-height="1017"
     id="namedview3727"
     showgrid="false"
     inkscape:zoom="0.9837963"
     inkscape:cx="800"
     inkscape:cy="432"
     inkscape:window-x="-8"
     inkscape:window-y="32"
     inkscape:window-maximized="1"
     inkscape:current-layer="svg3725" />
  <path
     d="M619.148 131.475c-45.084.475-69.441 32.787-41.29 113.423 72.138 206.64 9.546 188.042-144.012 135.961-153.559-52.08-206.01-73.097-255.21-14.732-49.199 58.365 16.18 75.893 56.44 123.396 40.261 47.505-.273 62.984-68.406 77.506-68.133 14.523-127.737 17.652-138.018 78.664-10.281 61.014 126.26 48.892-18.05 133.805A210.6 210.6 0 0 0 0 786.162V864h1196.486a3519.037 3519.037 0 0 0-234.316-47.941c-429.164-72.675-768.214-18.188-858.621 1.082-74.004 15.774-92.123 21.223-96.352 22.707 14.805-5.527 259.872-95.04 629.487-104.885 279.482-7.444 719.648 81.142 935.056 129.037H1600V590.326c-8.13-20.532-16.096-39.107-23.59-54.303-50.664-102.738-91.946-48.243-96.486-17.29-4.541 30.954-46.55 72.402-156.383-140.84-109.833-213.244-210.112-227.434-259.137-91.135-49.024 136.3-137.104 88.928-230.5-27.473-58.563-72.988-154.917-128.442-214.756-127.81z"
     id="path3723"
     fill="#36197f"
     style="fill:#006680" />
</svg>
