<?xml version="1.0" encoding="UTF-8" standalone="no"?>
<svg
   xmlns:dc="http://purl.org/dc/elements/1.1/"
   xmlns:cc="http://creativecommons.org/ns#"
   xmlns:rdf="http://www.w3.org/1999/02/22-rdf-syntax-ns#"
   xmlns:svg="http://www.w3.org/2000/svg"
   xmlns="http://www.w3.org/2000/svg"
   xmlns:sodipodi="http://sodipodi.sourceforge.net/DTD/sodipodi-0.dtd"
   xmlns:inkscape="http://www.inkscape.org/namespaces/inkscape"
   width="1600"
   height="517"
   version="1.1"
   id="svg4415"
   sodipodi:docname="leaf-bg-top.svg"
   inkscape:version="0.92.4 (5da689c313, 2019-01-14)">
  <metadata
     id="metadata4421">
    <rdf:RDF>
      <cc:Work
         rdf:about="">
        <dc:format>image/svg+xml</dc:format>
        <dc:type
           rdf:resource="http://purl.org/dc/dcmitype/StillImage" />
      </cc:Work>
    </rdf:RDF>
  </metadata>
  <defs
     id="defs4419" />
  <sodipodi:namedview
     pagecolor="#ffffff"
     bordercolor="#666666"
     borderopacity="1"
     objecttolerance="10"
     gridtolerance="10"
     guidetolerance="10"
     inkscape:pageopacity="0"
     inkscape:pageshadow="2"
     inkscape:window-width="640"
     inkscape:window-height="480"
     id="namedview4417"
     showgrid="false"
     inkscape:zoom="0.2225"
     inkscape:cx="800"
     inkscape:cy="258.5"
     inkscape:window-x="0"
     inkscape:window-y="0"
     inkscape:window-maximized="0"
     inkscape:current-layer="svg4415" />
  <path
     d="M171.715 0C191.86 64.814 222.013 156.159 246 204.434c39.666 79.83 71.66 37.324 75.121 13.226 3.461-24.098 36.055-56.45 122.024 109.23 85.968 165.681 164.035 176.49 201.865 70.311C682.84 291.022 751.49 327.68 824.44 418.04c80.207 99.348 250.7 156.474 199.28 10.594-56.621-160.631-7.87-146.304 111.746-106.137s160.48 56.398 198.629 10.865c38.148-45.533-12.767-59.019-44.207-95.89-31.441-36.872.064-49.012 53.049-60.473 52.984-11.46 99.36-14.035 107.216-61.537 7.858-47.502-98.365-37.75 13.733-104.164 6.322-3.746 11.8-7.52 16.539-11.297h-136.979c-85.902 20.45-212.327 42.846-366.652 47.422C843.918 51.362 664.204 27.525 506.22 0H171.715zm659.224 0c187.291 20.873 345.19 12.17 448.584 0H830.94z"
     fill="#36197f"
     id="path4413"
     style="fill:#0088aa" />
</svg>
